<svg width="229" height="229" viewBox="0 0 229 229" fill="none" xmlns="http://www.w3.org/2000/svg">
<path fill-rule="evenodd" clip-rule="evenodd" d="M221.809 67.5684C230.201 85.2649 222.812 104.847 207.822 113.908C222.022 122.117 229.988 139.753 223.816 157.176C217.065 176.21 197.119 184.815 179.757 179.768C184.561 196.035 177.568 214.887 160.266 222.854C142.448 231.033 122.988 223.401 114.109 208.35C105.687 222.428 87.9903 230.151 70.6587 223.766C52.2324 217.016 43.8098 197.829 48.1884 180.893C32.3162 184.937 14.3156 177.913 6.53161 161.159C-1.73892 143.372 5.80186 123.851 20.853 114.942C6.74446 106.61 -1.06998 88.9137 5.25454 71.5213C11.9439 53.095 31.0392 44.6116 48.0059 48.8989C43.9011 33.0268 50.8337 14.9654 67.5572 7.12052C85.2841 -1.21083 104.835 6.23873 113.836 21.2595C122.106 7.12052 139.772 -0.754735 157.165 5.47857C175.622 12.1072 184.196 31.172 179.97 48.1691C195.811 44.0035 213.903 50.8753 221.809 67.5684ZM120.312 148.845C122.258 149.696 124.387 150.183 126.667 150.183C131.988 150.183 136.701 147.568 139.56 143.554C140.076 142.915 140.502 142.216 140.837 141.486C141.931 139.449 142.539 137.138 142.6 134.706C148.529 132.395 152.726 126.618 152.726 119.867C152.726 119.016 152.665 118.195 152.513 117.374C152.361 116.34 152.117 115.367 151.753 114.425C151.023 112.357 149.898 110.502 148.408 108.952C149.29 107.006 149.776 104.816 149.776 102.536C149.776 97.2451 147.192 92.5625 143.208 89.7043C142.418 89.0961 141.536 88.5488 140.593 88.1231C138.708 87.211 136.58 86.694 134.36 86.6332C132.08 80.6432 126.272 76.4167 119.491 76.4167C118.67 76.4167 117.88 76.4775 117.089 76.6295C116.055 76.7512 115.052 76.9944 114.109 77.3593C112.072 78.089 110.217 79.2445 108.667 80.704C106.69 79.8222 104.501 79.3357 102.19 79.3357C96.9298 79.3357 92.2472 81.8898 89.3586 85.8123C88.7505 86.6028 88.2032 87.4846 87.7775 88.4272C86.8349 90.4036 86.2572 92.6537 86.2267 94.995C80.2063 97.2755 75.919 103.114 75.919 109.925C75.919 110.593 75.9494 111.262 76.071 111.901C76.1622 112.935 76.4055 113.908 76.74 114.881C77.4697 117.131 78.686 119.168 80.3279 120.871C79.5069 122.817 79.0204 124.976 79.0204 127.226C79.0204 132.334 81.4225 136.865 85.1929 139.753C85.9835 140.422 86.8653 140.969 87.7775 141.426C89.8147 142.459 92.1256 143.098 94.5581 143.128C96.8994 149.058 102.646 153.223 109.366 153.223C110.005 153.223 110.643 153.193 111.282 153.102C112.315 152.98 113.319 152.767 114.292 152.433C116.572 151.703 118.61 150.456 120.312 148.845ZM143.359 114.759C143.359 130.712 130.426 143.645 114.473 143.645C98.5197 143.645 85.587 130.712 85.587 114.759C85.587 98.8057 98.5197 85.873 114.473 85.873C130.426 85.873 143.359 98.8057 143.359 114.759Z" fill="#FFDB3B"/>
<path d="M207.822 113.908L206.443 111.627L202.586 113.959L206.488 116.215L207.822 113.908ZM221.809 67.5684L219.401 68.7089L219.401 68.7102L221.809 67.5684ZM223.816 157.176L226.327 158.067L226.327 158.066L223.816 157.176ZM179.757 179.768L180.501 177.209L175.821 175.849L177.201 180.523L179.757 179.768ZM160.266 222.854L161.378 225.276L161.381 225.274L160.266 222.854ZM114.109 208.35L116.404 206.996L114.126 203.133L111.823 206.982L114.109 208.35ZM70.6587 223.766L71.5799 221.266L71.5753 221.264L70.6587 223.766ZM48.1884 180.893L50.7682 181.56L51.8957 177.199L47.5305 178.311L48.1884 180.893ZM6.53161 161.159L8.94818 160.037L8.94786 160.036L6.53161 161.159ZM20.853 114.942L22.2103 117.235L26.0889 114.939L22.2079 112.647L20.853 114.942ZM5.25454 71.5213L7.75877 72.4319L7.75925 72.4306L5.25454 71.5213ZM48.0059 48.8989L47.3531 51.4823L51.7112 52.5836L50.5857 48.2317L48.0059 48.8989ZM67.5572 7.12052L68.6889 9.53294L68.6906 9.53211L67.5572 7.12052ZM113.836 21.2595L111.55 22.6291L113.863 26.4898L116.136 22.6049L113.836 21.2595ZM157.165 5.47857L158.065 2.97075L158.064 2.97015L157.165 5.47857ZM179.97 48.1691L177.384 47.5261L176.299 51.8897L180.647 50.7462L179.97 48.1691ZM120.312 148.845L121.38 146.403L119.763 145.696L118.481 146.909L120.312 148.845ZM139.56 143.554L137.488 141.877L137.437 141.941L137.389 142.008L139.56 143.554ZM140.837 141.486L138.489 140.225L138.449 140.299L138.414 140.376L140.837 141.486ZM142.6 134.706L141.633 132.223L139.981 132.867L139.936 134.639L142.6 134.706ZM152.513 117.374L149.876 117.762L149.884 117.811L149.893 117.859L152.513 117.374ZM151.753 114.425L149.24 115.312L149.253 115.349L149.268 115.387L151.753 114.425ZM148.408 108.952L145.981 107.852L145.236 109.496L146.486 110.798L148.408 108.952ZM143.208 89.7043L141.584 91.8163L141.619 91.8434L141.655 91.8692L143.208 89.7043ZM140.593 88.1231L139.433 90.5218L139.464 90.5371L139.497 90.5516L140.593 88.1231ZM134.36 86.6332L131.87 87.5813L132.504 89.248L134.287 89.2969L134.36 86.6332ZM117.089 76.6295L117.401 79.2759L117.497 79.2646L117.592 79.2462L117.089 76.6295ZM114.109 77.3593L115.008 79.8679L115.04 79.8565L115.071 79.8443L114.109 77.3593ZM108.667 80.704L107.581 83.1374L109.201 83.8602L110.493 82.6444L108.667 80.704ZM89.3586 85.8123L91.4707 87.4369L91.4877 87.4148L91.5042 87.3924L89.3586 85.8123ZM87.7775 88.4272L90.1826 89.5743L90.1945 89.5492L90.206 89.5239L87.7775 88.4272ZM86.2267 94.995L87.1706 97.4869L88.8676 96.8441L88.8912 95.0296L86.2267 94.995ZM76.071 111.901L78.7254 111.667L78.7136 111.534L78.6886 111.402L76.071 111.901ZM76.74 114.881L79.2746 114.059L79.2674 114.037L79.2599 114.015L76.74 114.881ZM80.3279 120.871L82.783 121.907L83.4664 120.287L82.246 119.021L80.3279 120.871ZM85.1929 139.753L86.9141 137.719L86.8648 137.677L86.8135 137.638L85.1929 139.753ZM87.7775 141.426L88.9833 139.049L88.9762 139.046L88.9692 139.042L87.7775 141.426ZM94.5581 143.128L97.0365 142.15L96.3797 140.486L94.5914 140.464L94.5581 143.128ZM111.282 153.102L110.97 150.455L110.937 150.459L110.905 150.464L111.282 153.102ZM114.292 152.433L113.48 149.895L113.453 149.903L113.426 149.913L114.292 152.433ZM209.2 116.188C225.272 106.473 233.238 85.4506 224.216 66.4267L219.401 68.7102C227.164 85.0793 220.352 103.22 206.443 111.627L209.2 116.188ZM226.327 158.066C232.962 139.339 224.379 120.402 209.156 111.601L206.488 116.215C219.665 123.833 227.015 140.167 221.304 156.286L226.327 158.066ZM179.013 182.327C197.636 187.741 219.073 178.523 226.327 158.067L221.304 156.285C215.058 173.898 196.602 181.89 180.501 177.209L179.013 182.327ZM161.381 225.274C179.977 216.712 187.462 196.45 182.312 179.013L177.201 180.523C181.66 195.621 175.158 213.063 159.152 220.433L161.381 225.274ZM111.814 209.704C121.334 225.841 142.226 234.067 161.378 225.276L159.155 220.432C142.671 227.999 124.642 220.961 116.404 206.996L111.814 209.704ZM69.7375 226.266C88.3674 233.13 107.369 224.806 116.396 209.718L111.823 206.982C104.004 220.05 87.6132 227.173 71.5799 221.266L69.7375 226.266ZM45.6085 180.226C40.913 198.389 49.9335 219.011 69.7421 226.268L71.5753 221.264C54.5313 215.02 46.7067 197.27 50.7682 181.56L45.6085 180.226ZM4.11505 162.282C12.4807 180.288 31.8294 187.811 48.8463 183.475L47.5305 178.311C32.8031 182.063 16.1506 175.539 8.94818 160.037L4.11505 162.282ZM19.4957 112.649C3.35161 122.205 -4.77348 143.165 4.11537 162.283L8.94786 160.036C1.29563 143.578 8.25211 125.497 22.2103 117.235L19.4957 112.649ZM2.75032 70.6106C-4.0462 89.3011 4.37155 108.304 19.4981 117.236L22.2079 112.647C9.11737 104.917 1.90623 88.5264 7.75877 72.4319L2.75032 70.6106ZM48.6587 46.3154C30.4669 41.7186 9.94078 50.8042 2.74984 70.612L7.75925 72.4306C13.9471 55.3858 31.6114 47.5046 47.3531 51.4823L48.6587 46.3154ZM66.4256 4.7081C48.447 13.1417 41.0271 32.5564 45.4261 49.5661L50.5857 48.2317C46.775 33.4971 53.2204 16.7891 68.6889 9.53294L66.4256 4.7081ZM116.121 19.8899C106.47 3.78317 85.4793 -4.2468 66.4238 4.70893L68.6906 9.53211C85.089 1.82514 103.2 8.6943 111.55 22.6291L116.121 19.8899ZM158.064 2.97015C139.373 -3.72856 120.404 4.75402 111.536 19.9141L116.136 22.6049C123.809 9.48702 140.172 2.21909 156.266 7.987L158.064 2.97015ZM182.556 48.8122C187.087 30.5867 177.903 10.0952 158.065 2.97075L156.264 7.9864C173.34 14.1191 181.305 31.7573 177.384 47.5261L182.556 48.8122ZM224.217 66.4279C215.718 48.4829 196.272 41.1271 179.292 45.5921L180.647 50.7462C195.351 46.8798 212.088 53.2677 219.401 68.7089L224.217 66.4279ZM126.667 147.518C124.775 147.518 123.009 147.116 121.38 146.403L119.244 151.286C121.508 152.276 123.999 152.847 126.667 152.847V147.518ZM137.389 142.008C135.013 145.344 131.097 147.518 126.667 147.518V152.847C132.88 152.847 138.389 149.791 141.73 145.1L137.389 142.008ZM138.414 140.376C138.167 140.915 137.857 141.422 137.488 141.877L141.631 145.231C142.296 144.409 142.837 143.518 143.259 142.597L138.414 140.376ZM139.936 134.639C139.886 136.668 139.38 138.568 138.489 140.225L143.184 142.748C144.483 140.33 145.193 137.608 145.264 134.772L139.936 134.639ZM150.061 119.867C150.061 125.487 146.569 130.299 141.633 132.223L143.568 137.188C150.49 134.491 155.39 127.748 155.39 119.867H150.061ZM149.893 117.859C150.009 118.49 150.061 119.144 150.061 119.867H155.39C155.39 118.888 155.32 117.9 155.133 116.889L149.893 117.859ZM149.268 115.387C149.552 116.121 149.749 116.898 149.876 117.762L155.149 116.986C154.972 115.783 154.683 114.614 154.237 113.463L149.268 115.387ZM146.486 110.798C147.701 112.062 148.631 113.586 149.24 115.312L154.265 113.538C153.415 111.128 152.094 108.942 150.329 107.105L146.486 110.798ZM147.111 102.536C147.111 104.438 146.705 106.253 145.981 107.852L150.835 110.051C151.874 107.758 152.441 105.194 152.441 102.536H147.111ZM141.655 91.8692C144.965 94.2442 147.111 98.1327 147.111 102.536H152.441C152.441 96.3574 149.419 90.8808 144.762 87.5393L141.655 91.8692ZM139.497 90.5516C140.23 90.8828 140.936 91.3184 141.584 91.8163L144.833 87.5922C143.899 86.8739 142.842 86.2149 141.69 85.6947L139.497 90.5516ZM134.287 89.2969C136.142 89.3477 137.899 89.7794 139.433 90.5218L141.754 85.7245C139.518 84.6425 137.017 84.0404 134.433 83.9696L134.287 89.2969ZM119.491 79.0813C125.139 79.0813 129.973 82.5995 131.87 87.5813L136.85 85.6852C134.186 78.6868 127.405 73.752 119.491 73.752V79.0813ZM117.592 79.2462C118.186 79.1322 118.804 79.0813 119.491 79.0813V73.752C118.537 73.752 117.574 73.8228 116.586 74.0128L117.592 79.2462ZM115.071 79.8443C115.793 79.565 116.576 79.3729 117.401 79.2759L116.778 73.9831C115.534 74.1294 114.311 74.4238 113.147 74.8743L115.071 79.8443ZM110.493 82.6444C111.785 81.4284 113.326 80.4703 115.008 79.8679L113.211 74.8507C110.818 75.7078 108.65 77.0606 106.84 78.7636L110.493 82.6444ZM102.19 82.0003C104.123 82.0003 105.943 82.4065 107.581 83.1374L109.752 78.2705C107.438 77.2379 104.879 76.671 102.19 76.671V82.0003ZM91.5042 87.3924C93.9098 84.1259 97.8085 82.0003 102.19 82.0003V76.671C96.0511 76.671 90.5846 79.6538 87.213 84.2322L91.5042 87.3924ZM90.206 89.5239C90.5371 88.7906 90.9727 88.0843 91.4707 87.4369L87.2465 84.1876C86.5283 85.1214 85.8692 86.1786 85.349 87.3305L90.206 89.5239ZM88.8912 95.0296C88.9162 93.1015 89.3933 91.2292 90.1826 89.5743L85.3724 87.2801C84.2764 89.578 83.5981 92.2059 83.5623 94.9604L88.8912 95.0296ZM78.5836 109.925C78.5836 104.256 82.1524 99.3877 87.1706 97.4869L85.2829 92.5031C78.2601 95.1632 73.2543 101.971 73.2543 109.925H78.5836ZM78.6886 111.402C78.6129 111.005 78.5836 110.528 78.5836 109.925H73.2543C73.2543 110.659 73.2859 111.52 73.4534 112.4L78.6886 111.402ZM79.2599 114.015C78.9742 113.183 78.7925 112.428 78.7254 111.667L73.4167 112.135C73.5319 113.441 73.8368 114.632 74.22 115.747L79.2599 114.015ZM82.246 119.021C80.8878 117.613 79.8808 115.928 79.2746 114.059L74.2053 115.703C75.0586 118.334 76.4841 120.724 78.4098 122.72L82.246 119.021ZM81.6851 127.226C81.6851 125.36 82.0888 123.552 82.783 121.907L77.8728 119.835C76.9251 122.081 76.3558 124.591 76.3558 127.226H81.6851ZM86.8135 137.638C83.6782 135.236 81.6851 131.476 81.6851 127.226H76.3558C76.3558 133.192 79.1668 138.493 83.5724 141.868L86.8135 137.638ZM88.9692 139.042C88.2015 138.658 87.5082 138.222 86.9141 137.719L83.4717 141.787C84.4588 142.623 85.529 143.281 86.5858 143.809L88.9692 139.042ZM94.5914 140.464C92.6058 140.439 90.6935 139.917 88.9833 139.049L86.5716 143.802C88.9359 145.002 91.6454 145.757 94.5248 145.793L94.5914 140.464ZM109.366 150.559C103.779 150.559 98.9906 147.098 97.0365 142.15L92.0797 144.107C94.8081 151.017 101.513 155.888 109.366 155.888V150.559ZM110.905 150.464C110.428 150.532 109.923 150.559 109.366 150.559V155.888C110.086 155.888 110.858 155.854 111.658 155.739L110.905 150.464ZM113.426 149.913C112.658 150.177 111.844 150.352 110.97 150.455L111.593 155.748C112.787 155.608 113.98 155.358 115.158 154.953L113.426 149.913ZM118.481 146.909C117.05 148.263 115.357 149.294 113.48 149.895L115.104 154.971C117.788 154.112 120.169 152.65 122.144 150.78L118.481 146.909ZM114.473 146.31C131.898 146.31 146.024 132.184 146.024 114.759H140.694C140.694 129.241 128.955 140.98 114.473 140.98V146.31ZM82.9223 114.759C82.9223 132.184 97.0481 146.31 114.473 146.31V140.98C99.9914 140.98 88.2516 129.241 88.2516 114.759H82.9223ZM114.473 83.2083C97.0481 83.2083 82.9223 97.3341 82.9223 114.759H88.2516C88.2516 100.277 99.9914 88.5376 114.473 88.5376V83.2083ZM146.024 114.759C146.024 97.3341 131.898 83.2083 114.473 83.2083V88.5376C128.955 88.5376 140.694 100.277 140.694 114.759H146.024Z" fill="#EBEBEB"/>
</svg>
