<svg width="240" height="219" viewBox="0 0 240 219" fill="none" xmlns="http://www.w3.org/2000/svg">
<path fill-rule="evenodd" clip-rule="evenodd" d="M180.227 64.8986C202.684 50.8687 202.102 17.9778 179.16 4.74592C156.223 -8.48836 127.446 7.46616 126.531 33.9228L125.004 78.1141C124.854 82.3926 127.081 86.4068 130.791 88.5449C134.501 90.683 139.09 90.6037 142.721 88.3334L180.227 64.8986ZM59.205 5.64267C82.1341 -7.6064 110.91 8.33269 111.832 34.7958L113.374 78.9962C113.522 83.2758 111.298 87.2896 107.591 89.4342C103.885 91.5759 99.2948 91.4984 95.6657 89.2307L58.159 65.813C35.705 51.7916 36.2758 18.8917 59.205 5.64267ZM51.5604 78.9812C28.1819 66.548 -0.00842872 83.4973 1.89049e-06 109.981C0.0084325 136.464 28.2124 153.406 51.584 140.971L90.6182 120.198C94.3966 118.187 96.757 114.252 96.7563 109.97C96.7526 105.688 94.391 101.754 90.6086 99.7438L51.5604 78.9812ZM59.6918 153.263C37.2355 167.293 37.8175 200.184 60.7585 213.416C83.6961 226.65 112.473 210.696 113.388 184.239L114.915 140.048C115.065 135.769 112.839 131.755 109.128 129.617C105.418 127.479 100.829 127.558 97.198 129.829L59.6918 153.263ZM239.915 108.182C239.924 134.665 211.733 151.615 188.355 139.181L149.307 118.419C145.524 116.409 143.163 112.475 143.159 108.192C143.158 103.91 145.519 99.9757 149.297 97.965L188.331 77.1913C211.703 64.7566 239.907 81.6985 239.915 108.182ZM128.086 183.363C129.008 209.827 157.784 225.766 180.713 212.517C203.642 199.267 204.213 166.368 181.759 152.346L144.252 128.929C140.623 126.661 136.033 126.583 132.327 128.725C128.62 130.87 126.395 134.883 126.544 139.163L128.086 183.363Z" fill="#4B5B33"/>
</svg>
