<svg width="368" height="521" viewBox="0 0 368 521" fill="none" xmlns="http://www.w3.org/2000/svg">
<path d="M365.499 346.473C365.499 378.197 348.813 421.27 318.452 456.444C288.142 491.557 244.463 518.501 190.704 518.501C128.977 518.501 82.051 491.468 50.5172 456.406C18.9166 421.269 2.90137 378.214 2.90137 346.473C2.90137 330.591 7.99213 301.128 17.4138 265.7C26.8163 230.342 40.4724 189.265 57.4756 150.224C74.4891 111.16 94.8003 74.2598 117.471 47.1687C140.2 20.009 164.913 3.1582 190.704 3.1582C216.469 3.1582 240.363 19.9802 261.862 47.1167C283.312 74.1919 302.003 111.078 317.395 150.142C332.776 189.18 344.811 230.258 352.999 265.621C361.2 301.041 365.499 330.541 365.499 346.473Z" fill="#FFD500" stroke="white" stroke-width="5"/>
<path d="M351.231 339.561C351.231 368.824 335.826 408.59 307.775 441.071C279.775 473.492 239.435 498.359 189.794 498.359C132.778 498.359 89.4356 473.402 60.3087 441.033C31.115 408.589 16.3291 368.841 16.3291 339.561C16.3291 324.909 21.0306 297.7 29.7417 264.96C38.4337 232.291 51.0579 194.336 66.7757 158.265C82.5038 122.17 101.276 88.0855 122.223 63.0677C143.226 37.9814 166.03 22.4609 189.794 22.4609C213.531 22.4609 235.577 37.9527 255.443 63.0158C275.261 88.0176 292.535 122.089 306.764 158.183C320.983 194.251 332.108 232.206 339.678 264.881C347.26 297.612 351.231 324.859 351.231 339.561Z" fill="#FFD500" stroke="white" stroke-width="5"/>
<path d="M337.803 337.684C337.803 364.487 323.679 400.944 297.937 430.733C272.248 460.461 235.247 483.251 189.724 483.251C137.418 483.251 97.66 460.372 70.94 430.695C44.1532 400.943 30.5967 364.503 30.5967 337.684C30.5967 324.262 34.9089 299.307 42.9094 269.255C50.8909 239.274 62.4832 204.443 76.9157 171.341C91.3584 138.215 108.592 106.947 127.814 84.002C147.093 60.9892 167.987 46.7988 189.724 46.7988C211.434 46.7988 231.631 60.9605 249.865 83.9501C268.05 106.879 283.908 138.134 296.974 171.259C310.029 204.358 320.246 239.19 327.196 269.176C334.16 299.219 337.803 324.212 337.803 337.684Z" fill="#FFD500" stroke="white" stroke-width="5"/>
<path d="M324.375 331.054C324.375 355.344 311.571 388.424 288.209 415.463C264.899 442.441 231.339 463.109 190.059 463.109C142.606 463.109 106.542 442.352 82.3016 415.424C57.9944 388.423 45.7041 355.36 45.7041 331.054C45.7041 318.888 49.6153 296.234 56.8838 268.928C64.1332 241.693 74.6624 210.051 87.7706 179.981C100.889 149.888 116.537 121.495 133.983 100.668C151.485 79.7723 170.411 66.9414 190.059 66.9414C209.68 66.9414 227.972 79.7436 244.524 100.616C261.027 121.427 275.426 149.807 287.294 179.899C299.151 209.966 308.431 241.608 314.744 268.849C321.071 296.146 324.375 318.838 324.375 331.054Z" fill="#FFD500" stroke="white" stroke-width="5"/>
<path d="M307.589 324.717C307.589 346.128 296.298 375.337 275.666 399.225C255.086 423.053 225.473 441.29 189.059 441.29C147.175 441.29 115.346 422.964 93.9503 399.187C72.4874 375.336 61.6494 346.144 61.6494 324.717C61.6494 313.99 65.1007 293.973 71.5295 269.812C77.9392 245.723 87.2489 217.736 98.8382 191.141C110.438 164.523 124.267 139.425 139.675 121.024C155.14 102.554 171.808 91.2812 189.059 91.2812C206.284 91.2812 222.391 102.526 237.014 120.972C251.588 139.357 264.313 164.442 274.806 191.06C285.29 217.651 293.495 245.639 299.077 269.734C304.672 293.885 307.589 313.94 307.589 324.717Z" fill="#FFD500" stroke="white" stroke-width="5"/>
<path d="M291.643 322.568C291.643 341.255 281.75 366.804 263.639 387.714C245.58 408.562 219.61 424.503 187.686 424.503C150.937 424.503 123.019 408.474 104.249 387.676C85.4124 366.803 75.917 341.272 75.917 322.568C75.917 313.204 78.9433 295.681 84.5969 274.494C90.2314 253.38 98.4152 228.848 108.602 205.539C118.799 182.206 130.95 160.223 144.476 144.116C158.058 127.941 172.643 118.137 187.686 118.137C202.701 118.137 216.792 127.912 229.632 144.064C242.425 160.155 253.604 182.125 262.829 205.457C272.044 228.763 279.257 253.295 284.164 274.415C289.084 295.593 291.643 313.154 291.643 322.568Z" fill="#FFD500" stroke="white" stroke-width="5"/>
<path d="M276.536 321.824C276.536 337.683 268.119 359.432 252.668 377.248C237.269 395.003 215.144 408.558 187.96 408.558C156.636 408.558 132.845 394.914 116.847 377.21C100.782 359.431 92.7021 337.7 92.7021 321.824C92.7021 313.873 95.2801 298.939 100.116 280.842C104.932 262.816 111.927 241.873 120.634 221.975C129.351 202.054 139.729 183.306 151.269 169.581C162.866 155.788 175.252 147.512 187.96 147.512C200.642 147.512 212.605 155.76 223.565 169.529C234.477 183.238 244.026 201.973 251.911 221.893C259.787 241.787 265.953 262.731 270.147 280.763C274.355 298.851 276.536 313.823 276.536 321.824Z" fill="#FFD500" stroke="white" stroke-width="5"/>
<path d="M258.073 317.173C258.073 329.838 251.325 347.293 238.884 361.615C226.496 375.876 208.722 386.736 186.903 386.736C161.715 386.736 142.594 375.787 129.733 361.577C116.804 347.292 110.327 329.855 110.327 317.173C110.327 310.819 112.398 298.811 116.307 284.202C120.198 269.666 125.849 252.776 132.88 236.732C139.922 220.665 148.295 205.572 157.588 194.537C166.937 183.436 176.835 176.885 186.903 176.885C196.944 176.885 206.498 183.408 215.33 194.485C224.115 205.504 231.818 220.584 238.188 236.65C244.549 252.691 249.529 269.581 252.918 284.123C256.319 298.723 258.073 310.769 258.073 317.173Z" fill="#FFD500" stroke="white" stroke-width="5"/>
<path d="M242.126 316.147C242.126 326.039 236.851 339.765 227.07 351.05C217.341 362.275 203.413 370.79 186.338 370.79C166.577 370.79 151.584 362.186 141.493 351.012C131.335 339.764 126.272 326.056 126.272 316.147C126.272 311.179 127.895 301.711 130.987 290.134C134.059 278.629 138.522 265.261 144.074 252.565C149.636 239.847 156.237 227.928 163.545 219.231C170.909 210.468 178.607 205.42 186.338 205.42C194.042 205.42 201.467 210.439 208.42 219.179C215.325 227.86 221.398 239.765 226.429 252.484C231.451 265.176 235.384 278.544 238.061 290.055C240.75 301.623 242.126 311.129 242.126 316.147Z" fill="#FFD500" stroke="white" stroke-width="5"/>
<path d="M228.699 315.105C228.699 322.693 224.628 333.322 217.017 342.087C209.459 350.79 198.667 357.363 185.459 357.363C170.121 357.363 158.495 350.702 150.666 342.049C142.77 333.321 138.862 322.709 138.862 315.105C138.862 311.29 140.119 303.932 142.543 294.872C144.948 285.883 148.441 275.439 152.785 265.524C157.14 255.585 162.296 246.302 167.983 239.546C173.727 232.724 179.631 228.92 185.459 228.92C191.26 228.92 196.949 232.695 202.367 239.494C207.739 246.234 212.48 255.503 216.42 265.442C220.349 275.354 223.428 285.798 225.523 294.793C227.631 303.844 228.699 311.24 228.699 315.105Z" fill="#FFD500" stroke="white" stroke-width="5"/>
<path d="M220.306 311.242C220.306 317.207 217.089 325.654 211.017 332.643C205 339.571 196.434 344.773 185.97 344.773C173.773 344.773 164.537 339.482 158.312 332.605C152.02 325.653 148.933 317.223 148.933 311.242C148.933 308.238 149.93 302.367 151.88 295.08C153.811 287.864 156.617 279.48 160.104 271.523C163.602 263.543 167.732 256.117 172.269 250.729C176.863 245.274 181.494 242.348 185.97 242.348C190.421 242.348 194.876 245.246 199.207 250.677C203.49 256.049 207.287 263.462 210.451 271.441C213.605 279.395 216.078 287.779 217.76 295.001C219.456 302.279 220.306 308.188 220.306 311.242Z" fill="#FFD500" stroke="white" stroke-width="5"/>
<path d="M210.235 307.943C210.235 312.187 207.944 318.314 203.551 323.412C199.21 328.449 193.075 332.185 185.614 332.185C176.85 332.185 170.222 328.359 165.746 323.373C161.203 318.313 159.004 312.204 159.004 307.943C159.004 305.8 159.719 301.509 161.153 296.109C162.568 290.781 164.623 284.589 167.176 278.716C169.74 272.82 172.752 267.371 176.037 263.439C179.38 259.437 182.621 257.455 185.614 257.455C188.581 257.455 191.691 259.408 194.838 263.387C197.936 267.303 200.704 272.739 203.023 278.635C205.332 284.504 207.144 290.696 208.377 296.031C209.623 301.421 210.235 305.751 210.235 307.943Z" fill="#FFD500" stroke="white" stroke-width="5"/>
<path d="M201.003 306.88C201.003 309.456 199.598 313.334 196.814 316.597C194.08 319.801 190.273 322.114 185.692 322.114C180.221 322.114 176.093 319.71 173.291 316.559C170.424 313.334 169.075 309.473 169.075 306.88C169.075 305.571 169.521 302.812 170.459 299.242C171.379 295.743 172.716 291.677 174.375 287.825C176.043 283.95 177.984 280.417 180.069 277.897C182.215 275.304 184.122 274.24 185.692 274.24C187.235 274.24 189.056 275.274 191.069 277.845C193.031 280.35 194.814 283.869 196.323 287.744C197.823 291.593 199.001 295.66 199.804 299.164C200.619 302.725 201.003 305.522 201.003 306.88Z" fill="#FFD500" stroke="white" stroke-width="5"/>
</svg>
