<svg width="241" height="220" viewBox="0 0 241 220" fill="none" xmlns="http://www.w3.org/2000/svg">
<path fill-rule="evenodd" clip-rule="evenodd" d="M180.494 65.8421C202.951 51.8122 202.369 18.9214 179.428 5.68948C156.49 -7.5448 127.713 8.40972 126.798 34.8664L125.271 79.0577C125.122 83.3361 127.348 87.3503 131.058 89.4885C134.768 91.6266 139.358 91.5472 142.988 89.277L180.494 65.8421ZM59.4721 6.58623C82.4013 -6.66284 111.177 9.27626 112.099 35.7394L113.641 79.9398C113.79 84.2194 111.565 88.2331 107.858 90.3778C104.152 92.5194 99.562 92.4419 95.9328 90.1743L58.4261 66.7566C35.9721 52.7352 36.5429 19.8353 59.4721 6.58623ZM51.8276 79.9247C28.449 67.4915 0.258702 84.4409 0.267133 110.924C0.275563 137.408 28.4795 154.349 51.8511 141.915L90.8853 121.141C94.6637 119.13 97.0242 115.196 97.0234 110.914C97.0198 106.631 94.6582 102.697 90.8757 100.687L51.8276 79.9247ZM59.959 154.207C37.5026 168.237 38.0846 201.128 61.0257 214.36C83.9633 227.594 112.74 211.639 113.655 185.183L115.183 140.991C115.332 136.713 113.106 132.699 109.395 130.561C105.685 128.423 101.096 128.502 97.4651 130.772L59.959 154.207ZM240.182 109.125C240.191 135.609 212.001 152.558 188.622 140.125L149.574 119.362C145.791 117.352 143.43 113.419 143.426 109.136C143.425 104.854 145.786 100.919 149.564 98.9085L188.598 78.1349C211.97 65.7002 240.174 82.6421 240.182 109.125ZM128.353 184.307C129.275 210.77 158.051 226.709 180.98 213.46C203.909 200.211 204.48 167.311 182.026 153.29L144.519 129.872C140.89 127.604 136.3 127.527 132.594 129.669C128.887 131.813 126.663 135.827 126.812 140.107L128.353 184.307Z" fill="#FFD500"/>
</svg>
